name GIL08_slow4EmgEnv.mot
datacolumns 51
datarows 11
range 0.20925930 0.21851856
endheader
                time	   rect_fem_l_emgRec	   rect_fem_l_emgEnv	   rect_fem_l_emgAve	   rect_fem_l_emgSDp	   rect_fem_l_emgSDm	   rect_fem_r_emgRec	   rect_fem_r_emgEnv	   rect_fem_r_emgAve	   rect_fem_r_emgSDp	   rect_fem_r_emgSDm	   med_hams_l_emgRec	   med_hams_l_emgEnv	   med_hams_l_emgAve	   med_hams_l_emgSDp	   med_hams_l_emgSDm	   med_hams_r_emgRec	   med_hams_r_emgEnv	   med_hams_r_emgAve	   med_hams_r_emgSDp	   med_hams_r_emgSDm	   lat_hams_l_emgRec	   lat_hams_l_emgEnv	   lat_hams_l_emgAve	   lat_hams_l_emgSDp	   lat_hams_l_emgSDm	   lat_hams_r_emgRec	   lat_hams_r_emgEnv	   lat_hams_r_emgAve	   lat_hams_r_emgSDp	   lat_hams_r_emgSDm	    tib_ant_l_emgRec	    tib_ant_l_emgEnv	    tib_ant_l_emgAve	    tib_ant_l_emgSDp	    tib_ant_l_emgSDm	    tib_ant_r_emgRec	    tib_ant_r_emgEnv	    tib_ant_r_emgAve	    tib_ant_r_emgSDp	    tib_ant_r_emgSDm	    gas_sol_l_emgRec	    gas_sol_l_emgEnv	    gas_sol_l_emgAve	    gas_sol_l_emgSDp	    gas_sol_l_emgSDm	    gas_sol_r_emgRec	    gas_sol_r_emgEnv	    gas_sol_r_emgAve	    gas_sol_r_emgSDp	    gas_sol_r_emgSDm	
          0.20925930	          0.04949491	          0.22895868	          0.38832337	          0.50175396	          0.27489277	          0.32674724	          0.26743726	          0.37399110	          0.51265444	          0.23532777	          0.05752306	          0.12109919	          0.15487242	          0.25438801	          0.05535682	          0.00456139	          0.01080139	          0.10153654	          0.12996728	          0.07310580	          0.02958361	          0.07840583	          0.11655006	          0.24645215	         -0.01335204	          0.19739288	          0.17624545	          0.18188728	          0.25666200	          0.10711256	          0.06513587	          0.17107807	          0.43393517	          0.75668642	          0.11118391	          0.16293466	          0.92233967	          0.43318713	          0.60359016	          0.26278409	          0.11330986	          0.09349624	          0.22897214	          0.34770747	          0.11023681	          0.04990145	          0.07297629	          0.07702868	          0.09021605	          0.06384132	
          0.21018523	          0.19455718	          0.22682162	          0.38884649	          0.50117711	          0.27651586	          0.32738372	          0.26380284	          0.37342247	          0.51162730	          0.23521765	          0.08371635	          0.11191557	          0.15217042	          0.25038309	          0.05395775	          0.00666834	          0.00925083	          0.10110179	          0.12940879	          0.07279478	          0.05818566	          0.07733519	          0.11457270	          0.24184994	         -0.01270454	          0.15715851	          0.17431464	          0.18144585	          0.25587559	          0.10701612	          0.07841980	          0.16634680	          0.43252051	          0.75589278	          0.10914823	          0.17941842	          0.92907711	          0.43541935	          0.60615857	          0.26468013	          0.10286741	          0.09098724	          0.22857945	          0.34750801	          0.10965089	          0.02638371	          0.07322373	          0.07692421	          0.09018600	          0.06366243	
          0.21111116	          0.30886710	          0.22484024	          0.38936898	          0.50064214	          0.27809582	          0.26960184	          0.26040328	          0.37284842	          0.51059444	          0.23510240	          0.06805757	          0.10326628	          0.14949533	          0.24641171	          0.05257896	          0.00699613	          0.00782276	          0.10066399	          0.12884798	          0.07248000	          0.04362686	          0.07631124	          0.11261369	          0.23728380	         -0.01205643	          0.10844769	          0.17244806	          0.18100423	          0.25509363	          0.10691482	          0.00923981	          0.16177843	          0.43110377	          0.75507745	          0.10713008	          0.33079444	          0.93556859	          0.43764266	          0.60871419	          0.26657113	          0.07718998	          0.08865399	          0.22819056	          0.34730422	          0.10907689	          0.00457382	          0.07348434	          0.07682236	          0.09016320	          0.06348153	
          0.21203707	          0.18471954	          0.22301922	          0.38989073	          0.50014969	          0.27963177	          0.14437841	          0.25723583	          0.37226912	          0.50955608	          0.23498216	          0.05503672	          0.09514886	          0.14684761	          0.24247457	          0.05122064	          0.01402463	          0.00651490	          0.10022323	          0.12828492	          0.07216153	          0.01663863	          0.07533419	          0.11067345	          0.23275479	         -0.01140789	          0.07435663	          0.17064128	          0.18056254	          0.25431631	          0.10680877	          0.04344146	          0.15737574	          0.42968500	          0.75424024	          0.10512975	          0.41581516	          0.94180279	          0.43985686	          0.61125684	          0.26845688	          0.02400722	          0.08650091	          0.22780560	          0.34709608	          0.10851512	          0.01795424	          0.07375639	          0.07672310	          0.09014758	          0.06329861	
          0.21296300	          0.10845383	          0.22136307	          0.39041147	          0.49970015	          0.28112278	          0.03263269	          0.25429754	          0.37168464	          0.50851230	          0.23485698	          0.04498329	          0.08755960	          0.14422768	          0.23857228	          0.04988309	          0.01103479	          0.00532481	          0.09977957	          0.12771969	          0.07183945	          0.04958657	          0.07440403	          0.10875233	          0.22826382	         -0.01075917	          0.03093851	          0.16888988	          0.18012078	          0.25354358	          0.10669798	          0.05522308	          0.15314126	          0.42826399	          0.75338075	          0.10314724	          0.26034632	          0.94776872	          0.44206169	          0.61378619	          0.27033719	          0.02294774	          0.08453195	          0.22742468	          0.34688359	          0.10796577	          0.02684658	          0.07403806	          0.07662641	          0.09013911	          0.06311371	
          0.21388893	          0.17912504	          0.21987617	          0.39093107	          0.49929408	          0.28256806	          0.10846283	          0.25158525	          0.37109515	          0.50746341	          0.23472689	          0.01965117	          0.08049360	          0.14163595	          0.23470548	          0.04856643	          0.00130547	          0.00424987	          0.09933303	          0.12715230	          0.07151375	          0.03327579	          0.07352058	          0.10685072	          0.22381184	         -0.01011039	          0.03890912	          0.16718952	          0.17967902	          0.25277555	          0.10658249	          0.08156613	          0.14907725	          0.42684102	          0.75249901	          0.10118303	          0.05955157	          0.95345575	          0.44425702	          0.61630206	          0.27221198	          0.06503656	          0.08275053	          0.22704792	          0.34666671	          0.10742913	          0.01294708	          0.07432747	          0.07653229	          0.09013773	          0.06292685	
          0.21481486	          0.07636419	          0.21856271	          0.39144918	          0.49893175	          0.28396662	          0.22550338	          0.24909558	          0.37050074	          0.50640945	          0.23459204	          0.00288098	          0.07394479	          0.13907294	          0.23087485	          0.04727103	          0.00198133	          0.00328730	          0.09888371	          0.12658286	          0.07118456	          0.02116312	          0.07268348	          0.10496902	          0.21939993	         -0.00946189	          0.11408507	          0.16553590	          0.17923734	          0.25201230	          0.10646237	          0.03186270	          0.14518570	          0.42541602	          0.75159472	          0.09923732	          0.24141186	          0.95885368	          0.44644254	          0.61880411	          0.27408098	          0.12764712	          0.08115955	          0.22667539	          0.34644543	          0.10690535	          0.01589424	          0.07462268	          0.07644070	          0.09014337	          0.06273803	
          0.21574079	          0.06819359	          0.21742672	          0.39196575	          0.49861379	          0.28531770	          0.28913602	          0.24682499	          0.36990154	          0.50535062	          0.23445246	          0.00664920	          0.06790600	          0.13653898	          0.22708099	          0.04599697	          0.00147547	          0.00243418	          0.09843167	          0.12601142	          0.07085192	          0.01813162	          0.07189216	          0.10310761	          0.21502895	         -0.00881373	          0.16958308	          0.16392485	          0.17879573	          0.25125388	          0.10633757	          0.08434668	          0.14146834	          0.42398912	          0.75066787	          0.09731036	          0.35753339	          0.96395279	          0.44861802	          0.62129208	          0.27594396	          0.17282460	          0.07976140	          0.22630721	          0.34621973	          0.10639470	          0.03277623	          0.07492174	          0.07635160	          0.09015595	          0.06254725	
          0.21666671	          0.06321044	          0.21647211	          0.39248049	          0.49834047	          0.28662052	          0.35242274	          0.24476974	          0.36929762	          0.50428708	          0.23430817	          0.02886175	          0.06236903	          0.13403448	          0.22332448	          0.04474449	          0.00608400	          0.00168746	          0.09797695	          0.12543802	          0.07051587	          0.01631025	          0.07114591	          0.10126681	          0.21069984	         -0.00816622	          0.17802239	          0.16235227	          0.17835425	          0.25050031	          0.10620819	          0.06938615	          0.13792665	          0.42256030	          0.74971822	          0.09540239	          0.55930601	          0.96874385	          0.45078337	          0.62376581	          0.27780093	          0.16815170	          0.07855792	          0.22594348	          0.34598962	          0.10589733	          0.04240909	          0.07522263	          0.07626501	          0.09017545	          0.06235456	
          0.21759263	          0.11094342	          0.21570258	          0.39299330	          0.49811226	          0.28787434	          0.37839076	          0.24292593	          0.36868915	          0.50321899	          0.23415931	          0.05385202	          0.05732464	          0.13155992	          0.21960600	          0.04351384	          0.00544699	          0.00104397	          0.09751962	          0.12486274	          0.07017650	          0.02665574	          0.07044385	          0.09944706	          0.20641360	         -0.00751949	          0.17987098	          0.16081421	          0.17791295	          0.24975167	          0.10607423	          0.05319272	          0.13456182	          0.42112970	          0.74874568	          0.09351373	          0.48256558	          0.97321822	          0.45293811	          0.62622480	          0.27965142	          0.16461318	          0.07755046	          0.22558431	          0.34575512	          0.10541350	          0.06349332	          0.07552332	          0.07618087	          0.09020178	          0.06215996	
          0.21851856	          0.16814508	          0.21512170	          0.39350379	          0.49792930	          0.28907827	          0.34204183	          0.24128950	          0.36807632	          0.50214663	          0.23400602	          0.06553171	          0.05276267	          0.12911558	          0.21592601	          0.04230515	          0.00427592	          0.00050042	          0.09705973	          0.12428562	          0.06983383	          0.01565751	          0.06978495	          0.09764856	          0.20217092	         -0.00687379	          0.18337412	          0.15930687	          0.17747186	          0.24900801	          0.10593572	          0.01989052	          0.13137480	          0.41969734	          0.74775013	          0.09164456	          0.35989103	          0.97736787	          0.45508230	          0.62866907	          0.28149553	          0.16185633	          0.07673981	          0.22522984	          0.34551627	          0.10494342	          0.07437983	          0.07582178	          0.07609916	          0.09023488	          0.06196345	
